<?xml version="1.0" encoding="UTF-8" standalone="no"?>
<!DOCTYPE svg PUBLIC "-//W3C//DTD SVG 1.1//EN" "http://www.w3.org/Graphics/SVG/1.1/DTD/svg11.dtd">
<svg width="100%" height="100%" viewBox="0 0 409 409" version="1.1" xmlns="http://www.w3.org/2000/svg" xmlns:xlink="http://www.w3.org/1999/xlink" xml:space="preserve" style="fill-rule:evenodd;clip-rule:evenodd;stroke-linejoin:round;stroke-miterlimit:1.41421;">
    <g transform="matrix(1,0,0,1,-1970.13,-1642.3)">
        <path d="M2174.26,1642.3C2286.92,1642.3 2378.38,1733.76 2378.38,1846.42C2378.38,1959.08 2286.92,2050.54 2174.26,2050.54C2061.6,2050.54 1970.13,1959.08 1970.13,1846.42C1970.13,1733.76 2061.6,1642.3 2174.26,1642.3ZM2137.23,1859.03L2137.23,1995.08L2192.06,1995.08L2192.06,1859.03L2237.59,1859.03L2244.58,1805.98L2192.06,1805.98L2192.06,1772.1C2192.06,1756.86 2196.18,1746.29 2218.23,1746.29L2246.37,1746.29L2246.37,1698.96C2241.53,1698.25 2224.86,1696.81 2205.5,1696.81C2165,1696.81 2137.23,1721.55 2137.23,1766.9L2137.23,1805.98L2091.52,1805.98L2091.52,1859.03L2137.23,1859.03Z" style="fill:#fff;"/>
    </g>
</svg>
